<svg id="Layer_1" data-name="Layer 1" xmlns="http://www.w3.org/2000/svg" viewBox="0 0 512 512"><defs><style>.cls-1{fill:#141f38;}</style></defs><title>audio-outline</title><path class="cls-1" d="M307.34,0H115.2a64,64,0,0,0-64,64V448a64,64,0,0,0,64,64H396.8a64,64,0,0,0,64-64V153.6ZM411.49,140.8H358.4A38.44,38.44,0,0,1,320,102.4V49.08ZM435.2,448a38.44,38.44,0,0,1-38.4,38.4H115.2A38.44,38.44,0,0,1,76.8,448V64a38.44,38.44,0,0,1,38.4-38.4H294.4v76.8a64,64,0,0,0,64,64h76.8Z"/><path class="cls-1" d="M332.76,255.26c0-.25,0-.5-.05-.74,0,0,0-.07,0-.11s0-.24-.06-.36c0-.28-.09-.55-.15-.82s-.07-.29-.11-.43-.14-.54-.23-.8-.1-.28-.15-.42-.19-.51-.3-.76-.13-.26-.19-.39-.24-.49-.37-.72l-.22-.37c-.14-.23-.29-.46-.44-.68l-.26-.34c-.16-.21-.33-.43-.5-.63l-.3-.33c-.18-.19-.35-.38-.54-.56l-.36-.33c-.18-.16-.36-.32-.54-.47l-.47-.35-.5-.35c-.2-.13-.41-.26-.63-.38l-.39-.22c-.27-.15-.55-.28-.83-.4l-.23-.1c-.35-.15-.71-.28-1.08-.39h0a12.43,12.43,0,0,0-3.77-.57h0c-.31,0-.63,0-.94,0l-.51,0h-.12L216,256.1l-.36.06c-.27,0-.55.08-.81.14l-.47.12c-.25.07-.51.13-.75.21l-.5.18-.66.26-.53.26-.57.29-.53.32-.51.33-.5.37-.49.39-.43.39c-.16.15-.32.3-.47.46l-.36.4c-.16.18-.31.35-.46.54l-.29.39c-.15.2-.3.41-.44.62l-.23.39c-.13.22-.27.45-.39.68s-.13.27-.19.4-.22.47-.32.71-.11.3-.17.45-.17.47-.24.71-.09.36-.14.53-.11.44-.15.67-.07.41-.09.62-.06.42-.08.63,0,.45,0,.67,0,.32,0,.49v79A38.4,38.4,0,1,0,230.4,384V318.5l76.8-9.6V335a38.4,38.4,0,1,0,25.6,36.21V256s0-.1,0-.14S332.77,255.46,332.76,255.26ZM192,396.8A12.8,12.8,0,1,1,204.8,384,12.81,12.81,0,0,1,192,396.8Zm38.4-104.1V280.1l76.8-9.6v12.6Zm64,91.3a12.8,12.8,0,1,1,12.8-12.8A12.81,12.81,0,0,1,294.4,384Z"/></svg>